<svg xmlns="http://www.w3.org/2000/svg" width="409.6" height="512" viewBox="0 0 409.6 512"><title>Icon-01-global</title><path d="M419.11,410.48l-94.84-56.94v-10a39.87,39.87,0,0,1,15.89-31.23,136.53,136.53,0,1,0-169-.53,42.11,42.11,0,0,1,16.57,32.78l-.05,9L92.88,410.48A68.68,68.68,0,0,0,59.74,469v34.48A8.53,8.53,0,0,0,68.27,512H443.74a8.53,8.53,0,0,0,8.53-8.53V469A68.7,68.7,0,0,0,419.11,410.48ZM338.54,382l-46.88,25.57L271,386.88l44.23-19c.12.08.22.2.35.27Zm-67,29.59-11.28,15.07h-8.52L240.47,411.6,256,396.07ZM181.78,298.41a118.56,118.56,0,0,1-45.14-98.58,119.47,119.47,0,1,1,193,99,56.77,56.77,0,0,0-22.43,44.65v9.24l-51.2,22-51.2-22v-8.22A59,59,0,0,0,181.78,298.41Zm14.59,69.84c.17-.09.28-.24.44-.33l44.25,19-20.71,20.7L173.47,382ZM76.8,494.93V469a50.84,50.84,0,0,1,24.87-43.88l48.84-29.32,56.66,99.14Zm143.46-11.48L173.37,401.4l44.41,24.23a8.54,8.54,0,0,0,10.12-1.46l.37-.38,9.57,12.78Zm13.92,11.48,19.2-51.2h5.24l19.2,51.2Zm40-58.35,9.56-12.78.37.37a8.55,8.55,0,0,0,10.12,1.46l44.41-24.23-46.89,82.05Zm161,58.35H304.84l56.65-99.14,48.83,29.31A50.86,50.86,0,0,1,435.2,469Z" transform="translate(-51.2)" fill="#1cdeb0"/><path d="M256,119.47a85.43,85.43,0,0,1,85.34,85.33,8.53,8.53,0,1,0,17.06,0A102.51,102.51,0,0,0,256,102.4a8.54,8.54,0,0,0,0,17.07Z" transform="translate(-51.2)" fill="#1cdeb0"/><path d="M256,51.2a8.53,8.53,0,0,0,8.54-8.53V8.53a8.54,8.54,0,0,0-17.07,0V42.67A8.53,8.53,0,0,0,256,51.2Z" transform="translate(-51.2)" fill="#1cdeb0"/><path d="M167.54,68.65a8.54,8.54,0,1,0,14.79-8.53L165.26,30.56a8.53,8.53,0,0,0-14.78,8.54Z" transform="translate(-51.2)" fill="#1cdeb0"/><path d="M81.76,114.06l29.56,17.07a8.54,8.54,0,0,0,8.54-14.79L90.3,99.28a8.53,8.53,0,1,0-8.54,14.78Z" transform="translate(-51.2)" fill="#1cdeb0"/><path d="M93.87,213.33a8.53,8.53,0,0,0,0-17.06H59.74a8.53,8.53,0,1,0,0,17.06Z" transform="translate(-51.2)" fill="#1cdeb0"/><path d="M81.76,295.54A8.54,8.54,0,0,0,86,311.47a8.63,8.63,0,0,0,4.26-1.14l29.56-17.07a8.53,8.53,0,1,0-8.54-14.78Z" transform="translate(-51.2)" fill="#1cdeb0"/><path d="M394.2,277.62a8.54,8.54,0,0,0-2.05,15.64l29.56,17.06a8.53,8.53,0,0,0,8.53-14.78l-29.56-17.07A8.53,8.53,0,0,0,394.2,277.62Z" transform="translate(-51.2)" fill="#1cdeb0"/><path d="M452.27,196.27H418.14a8.53,8.53,0,1,0,0,17.06h34.13a8.53,8.53,0,1,0,0-17.06Z" transform="translate(-51.2)" fill="#1cdeb0"/><path d="M400.68,131.13l29.56-17.07a8.53,8.53,0,1,0-8.53-14.78l-29.56,17.06a8.54,8.54,0,0,0,8.53,14.79Z" transform="translate(-51.2)" fill="#1cdeb0"/><path d="M337.06,72.92a8.54,8.54,0,0,0,7.4-4.27L361.53,39.1a8.54,8.54,0,1,0-14.79-8.54L329.68,60.12a8.53,8.53,0,0,0,7.38,12.8Z" transform="translate(-51.2)" fill="#1cdeb0"/</svg>