<svg xmlns="http://www.w3.org/2000/svg" width="185" height="56" viewBox="0 0 185 56" fill="none">
<g clip-path="url(#clip0_2359_727)">
<path d="M50.6647 11.5712C43.1189 25.462 35.5595 39.3392 28 53.23C26.4172 50.3236 24.8343 47.4172 23.2515 44.5107C21.6413 41.5497 20.0175 38.5751 18.4074 35.614L49.3957 9.94737C44.2651 3.8616 36.5828 0 28 0C19.4444 0 11.7758 3.83431 6.64522 9.89279C13.4542 15.3645 20.2495 20.8226 27.0585 26.2943L22.7329 29.883L17.6023 34.1267C13.5088 26.6082 9.41521 19.0897 5.32164 11.5712C1.97856 16.1832 0 21.8596 0 28C0 43.46 12.54 56 28 56C43.46 56 56 43.46 56 28C56 21.8596 54.0214 16.1832 50.6647 11.5712ZM21.191 16.2242C21.191 12.4581 24.2339 9.41521 28 9.41521C29.4873 9.41521 30.8655 9.89279 31.9844 10.7115C33.076 11.5029 33.9357 12.6218 34.3996 13.9181C34.6589 14.6413 34.7953 15.4191 34.7953 16.2242C34.7953 19.9903 31.7524 23.0331 27.9864 23.0331C24.2339 23.0331 21.191 19.9766 21.191 16.2242Z" fill="#1CDEB0"/>
</g>
<path d="M68.16 38V15.8H72.24V24.92H81.51V15.8H85.59V38H81.51V28.46H72.24V38H68.16ZM94.0383 38.3C92.3783 38.3 91.1183 37.79 90.2583 36.77C89.4183 35.75 88.9983 34.44 88.9983 32.84V22.1H92.9583V32.18C92.9583 33.04 93.1883 33.73 93.6483 34.25C94.1083 34.75 94.7583 35 95.5983 35C96.3383 35 96.9383 34.81 97.3983 34.43C97.8583 34.05 98.1883 33.56 98.3883 32.96C98.6083 32.36 98.7183 31.74 98.7183 31.1V22.1H102.708V38H98.7183V35.72H98.5383C98.3383 36.08 98.0483 36.46 97.6683 36.86C97.3083 37.26 96.8283 37.6 96.2283 37.88C95.6483 38.16 94.9183 38.3 94.0383 38.3ZM105.83 38V22.1H109.82V24.32H109.97C110.17 23.96 110.45 23.59 110.81 23.21C111.17 22.81 111.63 22.48 112.19 22.22C112.77 21.94 113.48 21.8 114.32 21.8C115.5 21.8 116.47 22.08 117.23 22.64C117.99 23.2 118.55 23.92 118.91 24.8H118.97C119.37 24.04 119.96 23.35 120.74 22.73C121.54 22.11 122.6 21.8 123.92 21.8C125.04 21.8 125.97 22.06 126.71 22.58C127.47 23.08 128.03 23.76 128.39 24.62C128.77 25.48 128.96 26.41 128.96 27.41V38H124.97V28.25C124.97 27.33 124.74 26.58 124.28 26C123.84 25.4 123.18 25.1 122.3 25.1C121.6 25.1 121.03 25.29 120.59 25.67C120.17 26.03 119.86 26.49 119.66 27.05C119.48 27.61 119.39 28.18 119.39 28.76V38H115.4V28.25C115.4 27.33 115.18 26.58 114.74 26C114.3 25.4 113.63 25.1 112.73 25.1C112.03 25.1 111.46 25.29 111.02 25.67C110.6 26.03 110.29 26.5 110.09 27.08C109.91 27.64 109.82 28.2 109.82 28.76V38H105.83ZM138.759 21.8C139.779 21.8 140.619 21.97 141.279 22.31C141.939 22.63 142.459 22.99 142.839 23.39C143.219 23.77 143.479 24.08 143.619 24.32H143.799V22.1H147.789V38H143.799V35.78H143.619C143.479 36.02 143.219 36.34 142.839 36.74C142.459 37.14 141.939 37.5 141.279 37.82C140.619 38.14 139.779 38.3 138.759 38.3C137.579 38.3 136.549 38.07 135.669 37.61C134.789 37.13 134.049 36.5 133.449 35.72C132.869 34.92 132.429 34.03 132.129 33.05C131.849 32.07 131.709 31.07 131.709 30.05C131.709 29.03 131.849 28.03 132.129 27.05C132.429 26.07 132.869 25.19 133.449 24.41C134.049 23.61 134.789 22.98 135.669 22.52C136.549 22.04 137.579 21.8 138.759 21.8ZM139.809 25.07C138.909 25.07 138.149 25.32 137.529 25.82C136.929 26.3 136.479 26.92 136.179 27.68C135.879 28.44 135.729 29.23 135.729 30.05C135.729 30.87 135.879 31.66 136.179 32.42C136.479 33.18 136.929 33.81 137.529 34.31C138.149 34.79 138.909 35.03 139.809 35.03C140.709 35.03 141.459 34.79 142.059 34.31C142.659 33.81 143.109 33.18 143.409 32.42C143.709 31.66 143.859 30.87 143.859 30.05C143.859 29.23 143.709 28.44 143.409 27.68C143.109 26.92 142.659 26.3 142.059 25.82C141.459 25.32 140.709 25.07 139.809 25.07ZM158.926 38.3C157.566 38.3 156.376 38.07 155.356 37.61C154.336 37.13 153.486 36.5 152.806 35.72C152.126 34.92 151.616 34.03 151.276 33.05C150.956 32.07 150.796 31.07 150.796 30.05C150.796 29.03 150.956 28.03 151.276 27.05C151.616 26.07 152.116 25.19 152.776 24.41C153.456 23.61 154.306 22.98 155.326 22.52C156.346 22.04 157.546 21.8 158.926 21.8C160.286 21.8 161.416 22 162.316 22.4C163.216 22.8 163.926 23.3 164.446 23.9C164.986 24.5 165.386 25.1 165.646 25.7C165.906 26.28 166.076 26.77 166.156 27.17C166.236 27.57 166.276 27.77 166.276 27.77H162.526C162.526 27.77 162.486 27.64 162.406 27.38C162.326 27.1 162.166 26.78 161.926 26.42C161.686 26.06 161.326 25.74 160.846 25.46C160.386 25.18 159.766 25.04 158.986 25.04C158.066 25.04 157.286 25.28 156.646 25.76C156.026 26.22 155.556 26.83 155.236 27.59C154.916 28.35 154.756 29.17 154.756 30.05C154.756 30.93 154.916 31.75 155.236 32.51C155.556 33.27 156.026 33.89 156.646 34.37C157.286 34.83 158.066 35.06 158.986 35.06C159.766 35.06 160.386 34.92 160.846 34.64C161.326 34.36 161.686 34.04 161.926 33.68C162.166 33.32 162.326 33.01 162.406 32.75C162.486 32.47 162.526 32.33 162.526 32.33H166.276C166.276 32.33 166.236 32.53 166.156 32.93C166.076 33.33 165.906 33.83 165.646 34.43C165.386 35.01 164.986 35.6 164.446 36.2C163.926 36.8 163.216 37.3 162.316 37.7C161.416 38.1 160.286 38.3 158.926 38.3ZM176.72 38.3C175.36 38.3 174.18 38.07 173.18 37.61C172.2 37.13 171.38 36.5 170.72 35.72C170.08 34.92 169.6 34.03 169.28 33.05C168.96 32.07 168.8 31.07 168.8 30.05C168.8 29.03 168.95 28.04 169.25 27.08C169.57 26.1 170.04 25.21 170.66 24.41C171.3 23.61 172.11 22.98 173.09 22.52C174.07 22.04 175.23 21.8 176.57 21.8C178.01 21.8 179.28 22.12 180.38 22.76C181.48 23.4 182.34 24.34 182.96 25.58C183.58 26.8 183.89 28.32 183.89 30.14V31.16H172.82C172.88 32.24 173.25 33.18 173.93 33.98C174.61 34.76 175.54 35.15 176.72 35.15C177.4 35.15 177.96 35.04 178.4 34.82C178.84 34.6 179.18 34.35 179.42 34.07C179.66 33.77 179.83 33.52 179.93 33.32C180.03 33.1 180.08 32.99 180.08 32.99H183.77C183.77 32.99 183.72 33.17 183.62 33.53C183.52 33.87 183.33 34.31 183.05 34.85C182.79 35.37 182.4 35.9 181.88 36.44C181.36 36.96 180.68 37.4 179.84 37.76C179 38.12 177.96 38.3 176.72 38.3ZM172.82 28.55H180.05C179.99 27.31 179.62 26.39 178.94 25.79C178.26 25.19 177.46 24.89 176.54 24.89C175.52 24.89 174.67 25.22 173.99 25.88C173.31 26.52 172.92 27.41 172.82 28.55Z" fill="white"/>
<defs>
<clipPath id="clip0_2359_727">
<rect width="56" height="56" fill="white"/>
</clipPath>
</defs>
</svg>